<?xml version="1.0" encoding="UTF-8" standalone="no"?>
<!-- Created with Inkscape (http://www.inkscape.org/) -->

<svg
   xmlns:dc="http://purl.org/dc/elements/1.1/"
   xmlns:cc="http://creativecommons.org/ns#"
   xmlns:rdf="http://www.w3.org/1999/02/22-rdf-syntax-ns#"
   xmlns:svg="http://www.w3.org/2000/svg"
   xmlns="http://www.w3.org/2000/svg"
   xmlns:sodipodi="http://sodipodi.sourceforge.net/DTD/sodipodi-0.dtd"
   xmlns:inkscape="http://www.inkscape.org/namespaces/inkscape"
   width="210mm"
   height="297mm"
   id="svg2"
   version="1.1"
   inkscape:version="0.48.5 r10040"
   sodipodi:docname="dessin.svg">
  <defs
     id="defs4" />
  <sodipodi:namedview
     id="base"
     pagecolor="#ffffff"
     bordercolor="#666666"
     borderopacity="1.0"
     inkscape:pageopacity="0.0"
     inkscape:pageshadow="2"
     inkscape:zoom="0.70000001"
     inkscape:cx="718.27524"
     inkscape:cy="368.9218"
     inkscape:document-units="px"
     inkscape:current-layer="layer1"
     showgrid="false"
     inkscape:window-width="1536"
     inkscape:window-height="801"
     inkscape:window-x="-8"
     inkscape:window-y="-8"
     inkscape:window-maximized="1" />
  <metadata
     id="metadata7">
    <rdf:RDF>
      <cc:Work
         rdf:about="">
        <dc:format>image/svg+xml</dc:format>
        <dc:type
           rdf:resource="http://purl.org/dc/dcmitype/StillImage" />
        <dc:title />
      </cc:Work>
    </rdf:RDF>
  </metadata>
  <g
     inkscape:label="Calque 1"
     inkscape:groupmode="layer"
     id="layer1">
    <rect
       style="fill:#000000"
       id="rect3062"
       width="1264.7109"
       height="847.01288"
       x="-338.96307"
       y="149.45401" />
    <path
       inkscape:connector-curvature="0"
       id="path3064"
       d="m 22.530592,846.02134 c -0.6875,-1.1082 -1.25,-2.92102 -1.25,-4.02848 0,-1.90568 0.63984,-2.01357 11.94098,-2.01357 6.84955,0 12.20344,0.42465 12.55651,0.99594 0.33854,0.54777 0.0226,2.23527 -0.70212,3.75 -1.29281,2.70214 -1.50597,2.75931 -11.30651,3.03254 -9.09838,0.25365 -10.1003,0.0988 -11.23886,-1.73643 z m -9.48548,-12.65952 c -1.05257,-2.31016 -0.91964,-2.8385 1.13222,-4.5 2.07469,-1.67998 4.17187,-1.88253 19.49154,-1.88253 18.11764,0 21.61172,0.78521 21.61172,4.8567 0,3.80272 -1.78553,4.1433 -21.72144,4.1433 l -19.32144,0 -1.1926,-2.61747 z m 0.80691,-10.95396 c -2.17268,-2.17267 -1.96574,-4.03898 0.65108,-5.87187 1.80413,-1.26366 5.48722,-1.5567 19.56574,-1.5567 10.04278,0 18.15744,0.43575 19.27749,1.03518 2.16212,1.15713 2.57138,4.9277 0.73426,6.76482 -0.8479,0.8479 -6.69524,1.2 -19.92857,1.2 -15.69264,0 -18.9833,-0.25473 -20.3,-1.57143 z m 0.0836,-12.25731 c -2.06619,-2.28311 -2.08581,-3.59759 -0.0836,-5.59983 1.31213,-1.31213 4.54061,-1.57143 19.56574,-1.57143 10.49159,0 18.8008,0.43162 19.92857,1.03518 1.09756,0.5874 1.93426,2.08617 1.93426,3.46482 0,1.37865 -0.8367,2.87742 -1.93426,3.46482 -1.12681,0.60305 -9.41102,1.03518 -19.84501,1.03518 -16.08166,0 -18.07977,-0.18676 -19.56574,-1.82874 z m 0.54203,-11.44227 c -0.55715,-0.67595 -1.95863,-3.92899 -3.1144,-7.22899 -1.15576,-3.3 -3.5258696,-8.25 -5.2668896,-11 -9.0729,-14.33091 -9.31573,-15.0347 -9.31573,-27 0,-10.14992 0.22749,-11.46368 2.94365997,-17 3.65268003,-7.44518 10.72857963,-14.46537 18.29097963,-18.14698 5.13212,-2.49847 6.86372,-2.80871 15.76536,-2.82453 8.77072,-0.0156 10.70291,0.31102 15.71807,2.65692 19.69577,9.21295 28.22604,32.26373 18.87723,51.01069 -1.72901,3.46715 -4.69451,8.7368 -6.59001,11.71035 -1.8955,2.97355 -4.38685,8.23263 -5.53633,11.68684 -1.14949,3.45421 -2.62525,6.473 -3.27947,6.70842 -1.70187,0.61241 -4.68949,-1.12783 -4.68949,-2.73156 0,-4.13814 4.67969,-15.32693 9.33832,-22.32721 6.30696,-9.47714 8.04433,-14.91347 7.49547,-23.45376 -0.70798,-11.01631 -7.46303,-20.96439 -17.63892,-25.97666 -3.85256,-1.89763 -6.30958,-2.31252 -13.69487,-2.31252 -8.107,0 -9.53138,0.29432 -14.35541,2.9663 -7.79343,4.31669 -12.7548196,10.43999 -15.3309296,18.92128 -1.89301,6.23231 -2.01528,7.80691 -1.04575,13.46698 0.74409,4.34399 2.2641,8.21992 4.71677,12.02747 5.4317996,8.43238 10.6266496,19.52914 11.2226796,23.97283 0.43632,3.25301 0.1751,4.13768 -1.48391,5.02555 -1.48841,0.79658 -2.27759,0.75709 -3.02643,-0.15142 z m -49.62559,-46.30042 c -2.10734,-2.10733 -1.98701,-5.7425 0.25731,-7.77358 1.3876,-1.25576 3.79988,-1.65499 10,-1.65499 6.83793,0 8.49761,0.32635 10.17126,2 2.53075,2.53075 2.53075,4.46925 0,7 -1.68362,1.68362 -3.33333,2 -10.42857,2 -6.32901,0 -8.82002,-0.39145 -10,-1.57143 z m 118.08356,-0.25731 c -2.1712,-2.39914 -2.10048,-5.45812 0.17375,-7.51627 1.40376,-1.27039 3.83069,-1.65499 10.4433,-1.65499 7.768418,0 8.767448,0.2183 10.171258,2.22251 2.05737,2.93731 1.96362,4.37057 -0.4433,6.77749 -2.8351,2.8351 -17.820118,2.96124 -20.345008,0.17126 z m -102.38087,-28.20508 c -8.51355,-4.72152 -10.16183,-6.96249 -7.78697,-10.58698 2.44424,-3.73038 3.90761,-3.83495 10.11528,-0.72283 6.53376,3.27561 11.3975304,7.43411 11.3975304,9.74484 0,1.90359 -3.47838,5.60431 -5.2500004,5.58557 -0.6875,-0.007 -4.50163,-1.81654 -8.47584,-4.0206 z m 95.38083,2.20508 c -3.88123,-4.28871 -1.68801,-7.62027 8.65425,-13.14605 6.27327,-3.35176 6.48313,-3.39127 9.05642,-1.70519 5.32151,3.48679 3.02667,7.63303 -7.48739,13.52801 -6.49994,3.64436 -7.95254,3.83238 -10.22328,1.32323 z M 6.0318324,708.2902 c -2.31957,-0.60628 -9.75124,-13.21766 -9.75124,-16.54765 0,-2.73915 2.28198,-5.76326 4.34891997,-5.76326 2.51621003,0 5.71592003,3.29098 9.12275003,9.38296 4.0695696,7.27706 4.2786896,8.86668 1.5283296,11.61704 -2.0485196,2.04852 -2.2419296,2.09683 -5.2487596,1.31091 z m 50.7033096,-1.76545 c -1.35,-1.35001 -2.45455,-2.82191 -2.45455,-3.27091 0,-2.19173 9.2105,-16.20658 11.03052,-16.78424 2.72035,-0.8634 6.96948,1.95346 6.96948,4.62026 0,2.80333 -6.66787,14.54339 -9.31186,16.39531 -2.84166,1.99038 -3.36313,1.91004 -6.23359,-0.96042 z m -26.00001,-7 c -2.16909,-2.1691 -2.45454,-3.32556 -2.45454,-9.94424 0,-6.50848 0.31987,-7.85727 2.44161,-10.29546 2.34279,-2.6922 2.55527,-2.74362 5.25,-1.2703 2.73407,1.49483 2.81616,1.78594 3.10193,11 0.26898,8.6726 0.11328,9.61097 -1.86078,11.21454 -2.82668,2.29616 -3.55692,2.21675 -6.47822,-0.70454 z"
       style="fill:#ffff00" />
    <path
       inkscape:connector-curvature="0"
       id="path3066"
       d="m -177.47961,858.14317 c -0.6875,-1.1082 -1.25,-2.92102 -1.25,-4.02848 0,-1.90568 0.63984,-2.01357 11.94098,-2.01357 6.84955,0 12.20344,0.42465 12.55651,0.99594 0.33854,0.54777 0.0226,2.23527 -0.70212,3.75 -1.29281,2.70214 -1.50597,2.75931 -11.30651,3.03254 -9.09838,0.25365 -10.1003,0.0988 -11.23886,-1.73643 z m -9.48548,-12.65952 c -1.05257,-2.31016 -0.91964,-2.8385 1.13222,-4.5 2.07469,-1.67998 4.17187,-1.88253 19.49154,-1.88253 18.11764,0 21.61172,0.78521 21.61172,4.8567 0,3.80272 -1.78553,4.1433 -21.72144,4.1433 l -19.32144,0 -1.1926,-2.61747 z m 0.80691,-10.95396 c -2.17268,-2.17267 -1.96574,-4.03898 0.65108,-5.87187 1.80413,-1.26366 5.48722,-1.5567 19.56574,-1.5567 10.04278,0 18.15744,0.43575 19.27749,1.03518 2.16212,1.15713 2.57138,4.9277 0.73426,6.76482 -0.8479,0.8479 -6.69524,1.2 -19.92857,1.2 -15.69264,0 -18.9833,-0.25473 -20.3,-1.57143 z m 0.0836,-12.25731 c -2.06619,-2.28311 -2.08581,-3.59759 -0.0836,-5.59983 1.31213,-1.31213 4.54061,-1.57143 19.56574,-1.57143 10.49159,0 18.8008,0.43162 19.92857,1.03518 1.09756,0.5874 1.93426,2.08617 1.93426,3.46482 0,1.37865 -0.8367,2.87742 -1.93426,3.46482 -1.12681,0.60305 -9.41102,1.03518 -19.84501,1.03518 -16.08166,0 -18.07977,-0.18676 -19.56574,-1.82874 z m 0.54203,-11.44227 c -0.55715,-0.67595 -1.95863,-3.92899 -3.1144,-7.22899 -1.15576,-3.3 -3.52587,-8.25 -5.26689,-11 -9.0729,-14.33091 -9.31573,-15.0347 -9.31573,-27 0,-10.14992 0.22749,-11.46368 2.94366,-17 3.65268,-7.44518 10.72858,-14.46537 18.29098,-18.14698 5.13212,-2.49847 6.86372,-2.80871 15.76536,-2.82453 8.77072,-0.0156 10.70291,0.31102 15.71807,2.65692 19.69577,9.21295 28.22604,32.26373 18.87723,51.01069 -1.72901,3.46715 -4.69451,8.7368 -6.59001,11.71035 -1.8955,2.97355 -4.38685,8.23263 -5.53633,11.68684 -1.14949,3.45421 -2.62525,6.473 -3.27947,6.70842 -1.70187,0.61241 -4.68949,-1.12783 -4.68949,-2.73156 0,-4.13814 4.67969,-15.32693 9.33832,-22.32721 6.30696,-9.47714 8.04433,-14.91347 7.49547,-23.45376 -0.70798,-11.01631 -7.46303,-20.96439 -17.63892,-25.97666 -3.85256,-1.89763 -6.30958,-2.31252 -13.69487,-2.31252 -8.107,0 -9.53138,0.29432 -14.35541,2.9663 -7.79343,4.31669 -12.75482,10.43999 -15.33093,18.92128 -1.89301,6.23231 -2.01528,7.80691 -1.04575,13.46698 0.74409,4.34399 2.2641,8.21992 4.71677,12.02747 5.4318,8.43238 10.62665,19.52914 11.22268,23.97283 0.43632,3.25301 0.1751,4.13768 -1.48391,5.02555 -1.48841,0.79658 -2.27759,0.75709 -3.02643,-0.15142 z m -49.62559,-46.30042 c -2.10734,-2.10733 -1.98701,-5.7425 0.25731,-7.77358 1.3876,-1.25576 3.79988,-1.65499 10,-1.65499 6.83793,0 8.49761,0.32635 10.17126,2 2.53075,2.53075 2.53075,4.46925 0,7 -1.68362,1.68362 -3.33333,2 -10.42857,2 -6.32901,0 -8.82002,-0.39145 -10,-1.57143 z m 118.08356,-0.25731 c -2.1712,-2.39914 -2.10048,-5.45812 0.17375,-7.51627 1.40376,-1.27039 3.83069,-1.65499 10.4433,-1.65499 7.768418,0 8.767448,0.2183 10.171258,2.22251 2.05737,2.93731 1.96362,4.37057 -0.4433,6.77749 -2.8351,2.8351 -17.820118,2.96124 -20.345008,0.17126 z M -219.45545,736.0673 c -8.51355,-4.72152 -10.16183,-6.96249 -7.78697,-10.58698 2.44424,-3.73038 3.90761,-3.83495 10.11528,-0.72283 6.53376,3.27561 11.39753,7.43411 11.39753,9.74484 0,1.90359 -3.47838,5.60431 -5.25,5.58557 -0.6875,-0.007 -4.50163,-1.81654 -8.47584,-4.0206 z m 95.38083,2.20508 c -3.88123,-4.28871 -1.68801,-7.62027 8.65425,-13.14605 6.27327,-3.35176 6.48313,-3.39127 9.05642,-1.70519 5.32151,3.48679 3.02667,7.63303 -7.48739,13.52801 -6.49994,3.64436 -7.95254,3.83238 -10.22328,1.32323 z m -69.90375,-17.86035 c -2.31957,-0.60628 -9.75124,-13.21766 -9.75124,-16.54765 0,-2.73915 2.28198,-5.76326 4.34892,-5.76326 2.51621,0 5.71592,3.29098 9.12275,9.38296 4.06957,7.27706 4.27869,8.86668 1.52833,11.61704 -2.04852,2.04852 -2.24193,2.09683 -5.24876,1.31091 z m 50.70331,-1.76545 c -1.35,-1.35001 -2.45455,-2.82191 -2.45455,-3.27091 0,-2.19173 9.2105,-16.20658 11.03052,-16.78424 2.72035,-0.8634 6.96948,1.95346 6.96948,4.62026 0,2.80333 -6.66787,14.54339 -9.31186,16.39531 -2.84166,1.99038 -3.36313,1.91004 -6.23359,-0.96042 z m -26.00001,-7 c -2.16909,-2.1691 -2.45454,-3.32556 -2.45454,-9.94424 0,-6.50848 0.31987,-7.85727 2.44161,-10.29546 2.34279,-2.6922 2.55527,-2.74362 5.25,-1.2703 2.73407,1.49483 2.81616,1.78594 3.10193,11 0.26898,8.6726 0.11328,9.61097 -1.86078,11.21454 -2.82668,2.29616 -3.55692,2.21675 -6.47822,-0.70454 z"
       style="fill:#ff0000" />
    <path
       style="fill:#ffff00"
       d="m 243.27798,508.06761 c -0.84064,-0.19336 -3.41989,-0.72138 -5.73166,-1.17339 -2.31177,-0.45201 -7.12637,-2.21501 -10.69911,-3.91777 -5.33067,-2.54061 -7.66645,-4.27674 -13.02164,-9.6787 -6.64976,-6.70783 -11.43345,-14.17347 -11.43345,-17.84354 0,-2.33429 2.19994,-4.4118 4.64551,-4.38696 1.0177,0.0103 3.88118,0.69813 6.36328,1.52845 5.69741,1.90589 16.68996,2.04672 22.66931,0.29042 22.66348,-6.65688 35.15268,-30.71351 27.44649,-52.86731 -1.55556,-4.47191 -1.58484,-4.92069 -0.43549,-6.67481 2.62618,-4.00807 7.31307,-2.76561 16.9802,4.5013 14.87177,11.17931 22.27975,31.44266 18.33272,50.14627 -3.83756,18.18483 -18.76296,34.0494 -36.28801,38.57139 -4.90929,1.26674 -16.00677,2.1536 -18.82815,1.50465 z m 17.99094,-11.83248 c 11.44305,-3.30303 22.26038,-13.64105 26.32348,-25.15709 3.54559,-10.0493 3.03806,-20.80513 -1.42581,-30.21633 -2.58434,-5.44858 -8.31043,-13.37388 -9.66274,-13.37388 -0.42612,0 -0.74645,2.73519 -0.74645,6.37364 0,13.63016 -4.94488,25.35663 -14.88351,35.29525 -9.83911,9.83912 -19.06705,13.8911 -33.64457,14.77334 l -8.40643,0.50875 3.05688,2.91981 c 10.2085,9.75071 24.89473,13.06032 39.38915,8.87651 z m -91.43287,-56.3404 c -1.98984,-1.32866 -2.59812,-4.28697 -2.59812,-12.63571 0,-7.68052 0.19132,-8.97895 1.58391,-10.74934 1.95536,-2.48584 5.22785,-2.66876 7.27725,-0.40677 1.18017,1.3026 1.50593,3.05067 1.72042,9.23206 0.30019,8.65123 -0.18795,12.28404 -1.87764,13.97372 -1.22259,1.2226 -4.65857,1.55238 -6.10582,0.58604 z m -45.35246,-19.78709 c -1.01647,-1.29224 -1.43054,-2.61222 -1.1387,-3.63005 0.25222,-0.87968 3.64578,-4.78049 7.54124,-8.66847 7.62656,-7.61192 9.68765,-8.51389 12.66093,-5.54061 2.97712,2.97713 2.07387,5.01967 -5.62389,12.71744 -5.91906,5.91905 -7.55668,7.15233 -9.4973,7.15233 -1.62805,0 -2.83332,-0.62083 -3.94228,-2.03064 z m 83.52646,-5.01059 c -3.84546,-3.90328 -7.20451,-7.81661 -7.46455,-8.69629 -0.66094,-2.23582 2.16468,-5.66069 4.67025,-5.66069 1.40793,0 3.74419,1.74904 8.42161,6.30483 3.56023,3.46766 6.98991,7.2967 7.62149,8.50898 1.05421,2.02348 1.02656,2.36803 -0.33726,4.20322 -0.88967,1.19716 -2.37498,2.08687 -3.7027,2.21795 -1.90365,0.18793 -3.20563,-0.7845 -9.20884,-6.878 z m -45.27161,-4.10154 c -12.67629,-3.40908 -22.88792,-12.9266 -27.31008,-25.45373 -2.14139,-6.06614 -2.4751,-17.34763 -0.68742,-23.23945 3.87786,-12.78064 13.52486,-22.65008 26.38322,-26.99157 6.06432,-2.04755 17.87112,-1.85909 24.07298,0.38427 9.1118,3.29595 17.40536,10.3099 21.63169,18.29415 7.03972,13.29921 6.38835,28.6899 -1.73198,40.9237 -8.91294,13.42789 -26.87331,20.24709 -42.35841,16.08263 z m 20.73759,-11.01321 c 6.08593,-2.27704 12.09649,-7.93792 15.26761,-14.37938 2.32213,-4.71691 2.50215,-5.63357 2.50215,-12.74087 0,-6.69567 -0.25556,-8.20343 -2.03314,-11.99536 -4.11344,-8.77474 -12.51956,-15.07009 -22.2309,-16.64878 -12.51734,-2.03481 -25.53661,4.9529 -31.01944,16.64878 -1.77669,3.79002 -2.03314,5.30102 -2.03314,11.97929 0,6.67828 0.25645,8.18927 2.03314,11.97929 6.7513,14.40178 22.51221,20.76981 37.51372,15.15703 z m -76.87528,-23.56644 c -1.85466,-2.04937 -1.62712,-5.90419 0.43371,-7.34765 1.32024,-0.92474 3.85422,-1.18967 11.37866,-1.18967 8.20364,0 9.9408,0.21104 11.38881,1.38357 2.07548,1.68062 2.23758,4.96059 0.34833,7.0482 -1.22647,1.35523 -2.38962,1.50311 -11.82252,1.50311 -9.16506,0 -10.61903,-0.17327 -11.72699,-1.39756 z m 108.78314,-0.13088 c -2.03602,-2.03602 -1.93162,-4.70436 0.2648,-6.76778 1.69019,-1.58786 2.37714,-1.67235 11.95556,-1.4706 9.9737,0.21008 10.19016,0.25136 11.66129,2.22383 1.60431,2.15101 1.37201,4.34259 -0.67754,6.39214 -0.91073,0.91072 -3.29216,1.15085 -11.41326,1.15085 -9.24345,0 -10.41417,-0.15176 -11.79085,-1.52844 z M 137.7523,344.73375 c -0.87536,-0.5105 -4.40033,-3.9257 -7.83327,-7.58933 -6.5692,-7.0106 -7.47754,-9.17857 -4.84417,-11.56173 2.95063,-2.67029 5.2547,-1.67826 12.4458,5.35861 3.72271,3.64286 6.97652,7.27863 7.2307,8.07948 0.74973,2.36217 -0.26222,4.84052 -2.36827,5.8001 -2.38779,1.08794 -2.62356,1.08351 -4.63079,-0.0871 z m 65.57902,0.47088 c -1.76139,-0.70869 -3.28447,-4.60019 -2.55322,-6.52353 0.3704,-0.97425 3.81912,-4.60452 7.6638,-8.06727 7.45162,-6.71139 10.01084,-7.70986 12.55521,-4.89836 2.53856,2.80508 1.61055,4.66867 -6.22833,12.50754 -7.10665,7.10667 -8.70371,8.08153 -11.43746,6.98162 z m -34.25545,-14.85318 c -1.28011,-1.41451 -1.45583,-2.85244 -1.45583,-11.91296 0,-9.90716 0.0695,-10.36058 1.80416,-11.7652 2.28317,-1.8488 4.04339,-1.8488 6.32656,0 1.73463,1.40462 1.80416,1.85804 1.80416,11.7652 0,9.06052 -0.17573,10.49845 -1.45583,11.91296 -0.80071,0.88477 -2.38094,1.60868 -3.51161,1.60868 -1.13067,0 -2.7109,-0.72391 -3.51161,-1.60868 z"
       id="path3081"
       inkscape:connector-curvature="0" />
    <path
       inkscape:connector-curvature="0"
       id="path3085"
       d="m -55.727173,431.29602 c -0.84064,-0.19336 -3.41989,-0.72138 -5.73166,-1.17339 -2.31177,-0.45201 -7.12637,-2.21501 -10.69911,-3.91777 -5.33067,-2.54061 -7.66645,-4.27674 -13.02164,-9.6787 -6.64976,-6.70783 -11.43345,-14.17347 -11.43345,-17.84354 0,-2.33429 2.19994,-4.4118 4.64551,-4.38696 1.0177,0.0103 3.88118,0.69813 6.36328,1.52845 5.69741,1.90589 16.68996,2.04672 22.66931,0.29042 22.66348,-6.65688 35.15268,-30.71351 27.44649,-52.86731 -1.55556,-4.47191 -1.58484,-4.92069 -0.43549,-6.67481 2.62618,-4.00807 7.31307,-2.76561 16.9802,4.5013 14.8717697,11.17931 22.2797497,31.44266 18.33271973,50.14627 -3.83756003,18.18483 -18.76295973,34.0494 -36.28800973,38.57139 -4.90929,1.26674 -16.00677,2.1536 -18.82815,1.50465 z m 17.99094,-11.83248 c 11.44305,-3.30303 22.26038,-13.64105 26.32348,-25.15709 3.5455897,-10.0493 3.0380597,-20.80513 -1.42581,-30.21633 -2.58434,-5.44858 -8.31043,-13.37388 -9.66274,-13.37388 -0.42612,0 -0.74645,2.73519 -0.74645,6.37364 0,13.63016 -4.94488,25.35663 -14.88351,35.29525 -9.83911,9.83912 -19.06705,13.8911 -33.64457,14.77334 l -8.40643,0.50875 3.05688,2.91981 c 10.2085,9.75071 24.89473,13.06032 39.38915,8.87651 z m -91.432867,-56.3404 c -1.98984,-1.32866 -2.59812,-4.28697 -2.59812,-12.63571 0,-7.68052 0.19132,-8.97895 1.58391,-10.74934 1.95536,-2.48584 5.22785,-2.66876 7.27725,-0.40677 1.18017,1.3026 1.50593,3.05067 1.72042,9.23206 0.30019,8.65123 -0.18795,12.28404 -1.87764,13.97372 -1.22259,1.2226 -4.65857,1.55238 -6.10582,0.58604 z m -45.35246,-19.78709 c -1.01647,-1.29224 -1.43054,-2.61222 -1.1387,-3.63005 0.25222,-0.87968 3.64578,-4.78049 7.54124,-8.66847 7.62656,-7.61192 9.68765,-8.51389 12.66093,-5.54061 2.97712,2.97713 2.07387,5.01967 -5.62389,12.71744 -5.91906,5.91905 -7.55668,7.15233 -9.4973,7.15233 -1.62805,0 -2.83332,-0.62083 -3.94228,-2.03064 z m 83.526457,-5.01059 c -3.84546,-3.90328 -7.20451,-7.81661 -7.46455,-8.69629 -0.66094,-2.23582 2.16468,-5.66069 4.67025,-5.66069 1.40793,0 3.74419,1.74904 8.42161,6.30483 3.56023,3.46766 6.98991,7.2967 7.62149,8.50898 1.05421,2.02348 1.02656,2.36803 -0.33726,4.20322 -0.88967,1.19716 -2.37498,2.08687 -3.7027,2.21795 -1.90365,0.18793 -3.20563,-0.7845 -9.20884,-6.878 z m -45.271607,-4.10154 c -12.67629,-3.40908 -22.88792,-12.9266 -27.31008,-25.45373 -2.14139,-6.06614 -2.4751,-17.34763 -0.68742,-23.23945 3.87786,-12.78064 13.52486,-22.65008 26.38322,-26.99157 6.06432,-2.04755 17.87112,-1.85909 24.07298,0.38427 9.1118,3.29595 17.405357,10.3099 21.631687,18.29415 7.03972,13.29921 6.38835,28.6899 -1.73198,40.9237 -8.912937,13.42789 -26.873307,20.24709 -42.358407,16.08263 z m 20.73759,-11.01321 c 6.08593,-2.27704 12.09649,-7.93792 15.26761,-14.37938 2.322127,-4.71691 2.502147,-5.63357 2.502147,-12.74087 0,-6.69567 -0.25556,-8.20343 -2.03314,-11.99536 -4.113437,-8.77474 -12.519557,-15.07009 -22.230897,-16.64878 -12.51734,-2.03481 -25.53661,4.9529 -31.01944,16.64878 -1.77669,3.79002 -2.03314,5.30102 -2.03314,11.97929 0,6.67828 0.25645,8.18927 2.03314,11.97929 6.7513,14.40178 22.51221,20.76981 37.51372,15.15703 z m -76.87528,-23.56644 c -1.85466,-2.04937 -1.62712,-5.90419 0.43371,-7.34765 1.32024,-0.92474 3.85422,-1.18967 11.37866,-1.18967 8.20364,0 9.9408,0.21104 11.38881,1.38357 2.07548,1.68062 2.23758,4.96059 0.34833,7.0482 -1.22647,1.35523 -2.38962,1.50311 -11.82252,1.50311 -9.16506,0 -10.61903,-0.17327 -11.72699,-1.39756 z m 108.783137,-0.13088 c -2.03602,-2.03602 -1.93162,-4.70436 0.2648,-6.76778 1.69019,-1.58786 2.37714,-1.67235 11.95556,-1.4706 9.9737,0.21008 10.19016,0.25136 11.66129,2.22383 1.60431,2.15101 1.37201,4.34259 -0.67754,6.39214 -0.91073,0.91072 -3.29216,1.15085 -11.41326,1.15085 -9.24345,0 -10.41417,-0.15176 -11.79085,-1.52844 z m -77.631587,-31.55123 c -0.87536,-0.5105 -4.40033,-3.9257 -7.83327,-7.58933 -6.5692,-7.0106 -7.47754,-9.17857 -4.84417,-11.56173 2.95063,-2.67029 5.2547,-1.67826 12.4458,5.35861 3.72271,3.64286 6.97652,7.27863 7.2307,8.07948 0.74973,2.36217 -0.26222,4.84052 -2.36827,5.8001 -2.38779,1.08794 -2.62356,1.08351 -4.63079,-0.0871 z m 65.579017,0.47088 c -1.76139,-0.70869 -3.28447,-4.60019 -2.55322,-6.52353 0.3704,-0.97425 3.81912,-4.60452 7.6638,-8.06727 7.45162,-6.71139 10.01084,-7.70986 12.55521,-4.89836 2.53856,2.80508 1.61055,4.66867 -6.22833,12.50754 -7.10665,7.10667 -8.70371,8.08153 -11.43746,6.98162 z m -34.255447,-14.85318 c -1.28011,-1.41451 -1.45583,-2.85244 -1.45583,-11.91296 0,-9.90716 0.0695,-10.36058 1.80416,-11.7652 2.28317,-1.8488 4.04339,-1.8488 6.32656,0 1.73463,1.40462 1.80416,1.85804 1.80416,11.7652 0,9.06052 -0.17573,10.49845 -1.45583,11.91296 -0.80071,0.88477 -2.38094,1.60868 -3.51161,1.60868 -1.13067,0 -2.7109,-0.72391 -3.51161,-1.60868 z"
       style="fill:#0000ff" />
    <path
       style="fill:#0000ff"
       d="m 444.86787,397.30955 c -1.7102,-0.7311 -11.3852,-6.8861 -21.5,-13.6777 l -18.3906,-12.3485 -9.8634,-0.5398 c -14.2194,-0.7782 -13.6366,0.3815 -13.6366,-27.1343 l 0,-21.9346 2.4545,-2.4546 c 2.2182,-2.2181 3.2671,-2.4545 10.8917,-2.4545 l 8.437,0 21.2523,-14 c 12.4953,-8.2313 22.2435,-14 23.658,-14 3.5854,0 7.7612,2.5077 9.1118,5.472 0.8726,1.9152 1.1947,15.4108 1.1947,50.0593 l 0,47.4371 -2.75,2.9194 c -3.3686,3.576 -6.7645,4.4067 -10.8594,2.6562 z m 4.6094,-54.103 c 0,-25.2227 -0.3885,-45.441 -0.8731,-45.441 -1.269,0 -36.3924,23.3538 -37.8984,25.199 -0.9554,1.1704 -1.2041,6.5 -1,21.4294 l 0.2715,19.8716 18.9121,12.7088 c 10.4017,6.9899 19.2892,12.4758 19.75,12.191 0.4609,-0.2848 0.8379,-20.9663 0.8379,-45.9588 z m -48.607,16.9772 c 1.0384,-2.706 0.6711,-31.4299 -0.4282,-33.484 -1.1958,-2.2344 -7.7703,-2.7288 -9.7648,-0.7342 -1.2941,1.2941 -1.7887,33.8779 -0.5333,35.1333 0.3666,0.3667 2.7935,0.6667 5.393,0.6667 3.3873,0 4.8983,-0.4482 5.3333,-1.5818 z m 88.807,29.3818 c -1.7414,-1.7415 -1.6852,-1.876 3.9356,-9.4133 9.1808,-12.3114 12.8644,-22.9178 12.8644,-37.0416 0,-13.2847 -4.2901,-25.063 -13.3931,-36.7699 -2.5338,-3.2586 -4.6069,-6.2264 -4.6069,-6.595 0,-0.3686 0.8626,-1.4509 1.9168,-2.4049 2.5516,-2.3092 4.6868,-1.1155 10.0476,5.6174 17.122,21.5043 18.6609,52.8159 3.7371,76.0345 -6.6198,10.2992 -11.3364,13.7379 -14.5015,10.5728 z m -18.2239,-18.3288 c -1.0595,-1.2766 -0.6368,-2.4466 2.562,-7.0911 9.6281,-13.9795 9.6838,-27.1137 0.1728,-40.6756 l -4.0644,-5.7954 2.112,-2.112 c 2.0296,-2.0297 2.2144,-2.0449 4.7394,-0.3904 1.4451,0.9468 3.9348,3.7829 5.5326,6.3024 9.1828,14.4799 8.5716,32.78 -1.5546,46.5409 -3.7086,5.0398 -7.0501,6.1729 -9.4998,3.2212 z"
       id="path3173"
       inkscape:connector-curvature="0" />
    <path
       style="fill:#0000ff"
       d="m 580.79466,253.6234 c -1.7102,-0.7311 -11.3852,-6.8861 -21.5,-13.6777 l -18.3906,-12.3485 -9.8634,-0.5398 c -14.2194,-0.7782 -13.6366,0.3815 -13.6366,-27.1343 l 0,-21.9346 2.4545,-2.4546 c 2.2182,-2.2181 3.2671,-2.4545 10.8917,-2.4545 l 8.437,0 21.2523,-14 c 12.4953,-8.2313 22.2435,-14 23.658,-14 3.5854,0 7.7612,2.5077 9.1118,5.472 0.8726,1.9152 1.1947,15.4108 1.1947,50.0593 l 0,47.4371 -2.75,2.9194 c -3.3686,3.576 -6.7645,4.4067 -10.8594,2.6562 z m 4.6094,-54.103 c 0,-25.2227 -0.3885,-45.441 -0.8731,-45.441 -1.269,0 -36.3924,23.3538 -37.8984,25.199 -0.9554,1.1704 -1.2041,6.5 -1,21.4294 l 0.2715,19.8716 18.9121,12.7088 c 10.4017,6.9899 19.2892,12.4758 19.75,12.191 0.4609,-0.2848 0.8379,-20.9663 0.8379,-45.9588 z m -48.607,16.9772 c 1.0384,-2.706 0.6711,-31.4299 -0.4282,-33.484 -1.1958,-2.2344 -7.7703,-2.7288 -9.7648,-0.7342 -1.2941,1.2941 -1.7887,33.8779 -0.5333,35.1333 0.3666,0.3667 2.7935,0.6667 5.393,0.6667 3.3873,0 4.8983,-0.4482 5.3333,-1.5818 z m 88.807,29.3818 c -1.7414,-1.7415 -1.6852,-1.876 3.9356,-9.4133 9.1808,-12.3114 12.8644,-22.9178 12.8644,-37.0416 0,-13.2847 -4.2901,-25.063 -13.3931,-36.7699 -2.5338,-3.2586 -4.6069,-6.2264 -4.6069,-6.595 0,-0.3686 0.8626,-1.4509 1.9168,-2.4049 2.5516,-2.3092 4.6868,-1.1155 10.0476,5.6174 17.122,21.5043 18.6609,52.8159 3.7371,76.0345 -6.6198,10.2992 -11.3364,13.7379 -14.5015,10.5728 z m -18.2239,-18.3288 c -1.0595,-1.2766 -0.6368,-2.4466 2.562,-7.0911 9.6281,-13.9795 9.6838,-27.1137 0.1728,-40.6756 l -4.0644,-5.7954 2.112,-2.112 c 2.0296,-2.0297 2.2144,-2.0449 4.7394,-0.3904 1.4451,0.9468 3.9348,3.7829 5.5326,6.3024 9.1828,14.4799 8.5716,32.78 -1.5546,46.5409 -3.7086,5.0398 -7.0501,6.1729 -9.4998,3.2212 z"
       id="path3173-8"
       inkscape:connector-curvature="0" />
    <path
       style="fill:#ff0000"
       d="m 170.10092,853.06956 c -0.0727,-0.0726 -1.37575,-0.25091 -3.33133,-0.45586 -2.01476,-0.21114 -5.93992,-1.35535 -7.87829,-2.29656 -0.61627,-0.29925 -1.18303,-0.54411 -1.25942,-0.54411 -0.0764,0 -0.7985,-0.34545 -1.60474,-0.76768 -6.43313,-3.36925 -11.6525,-8.6228 -14.99018,-15.08842 -0.47482,-0.91978 -0.93721,-1.86743 -1.02768,-2.1059 -0.0902,-0.23845 -0.32148,-0.80128 -0.51356,-1.25072 -0.3386,-0.79254 -1.24838,-3.8017 -1.64422,-5.43857 -0.10704,-0.44285 -0.2531,-1.33476 -0.32452,-1.98201 -0.0718,-0.64725 -0.19493,-1.65065 -0.27436,-2.22977 -0.17616,-1.28415 -0.17533,-5.4081 0,-7.1848 0.31476,-3.16292 0.42511,-3.99366 0.72395,-5.45053 0.84204,-4.10471 2.63923,-8.68815 4.63089,-11.81005 1.86621,-2.92551 4.4054,-5.64983 7.21424,-7.74043 0.93675,-0.69726 1.71666,-1.2801 1.73295,-1.29517 0.0166,-0.0151 0.0589,-19.28703 0.0938,-42.82653 0.0607,-40.25437 0.0773,-42.85245 0.28144,-43.69637 0.44343,-1.8301 1.25178,-3.44834 2.68129,-5.3676 0.53657,-0.72042 1.24617,-1.54228 1.57703,-1.82637 0.33078,-0.28409 0.93592,-0.80077 1.34474,-1.14816 1.5579,-1.32397 5.27063,-3.25861 7.24674,-3.77614 2.36459,-0.6193 3.19006,-0.71059 6.93703,-0.7672 6.04502,-0.0913 8.34454,0.34581 12.28653,2.33572 1.60612,0.81081 4.15718,2.68387 5.25241,3.85661 1.64836,1.76497 3.22466,4.53238 3.67767,6.45671 0.25632,1.0888 0.26948,1.48254 0.33326,9.94094 0.0534,7.12179 0.0984,8.84564 0.23313,9.00792 0.14753,0.17769 0.72929,0.2047 5.07891,0.23569 l 4.91224,0.035 0.6194,0.30969 c 0.79796,0.399 1.1719,1.02637 1.17475,1.97113 0,0.861 -0.41619,1.61715 -1.07765,1.94581 -0.42879,0.21303 -0.89882,0.23818 -5.51066,0.29484 -3.90555,0.048 -5.07818,0.0982 -5.20279,0.22298 -0.12637,0.12654 -0.16088,1.19688 -0.16088,4.99599 0,4.6431 0.009,4.84192 0.24049,5.01077 0.19788,0.14467 1.08897,0.17583 5.0294,0.17583 3.24537,0 4.92476,0.0454 5.21016,0.14073 0.90471,0.30238 1.47396,1.13307 1.47396,2.15097 0,1.01789 -0.56925,1.84859 -1.47396,2.15098 -0.28577,0.0955 -1.98264,0.14073 -5.28057,0.14073 -4.36913,0 -4.87662,0.0206 -5.02949,0.20484 -0.25062,0.30208 -0.25062,9.56993 0,9.872 0.15259,0.18377 0.64324,0.20498 4.76921,0.20619 4.88316,0.002 5.34711,0.048 6.14507,0.61617 1.1059,0.78745 1.15818,2.454 0.10759,3.43117 -0.54964,0.51129 -0.80615,0.53473 -5.84954,0.53473 -4.00347,0 -4.90386,0.031 -5.10183,0.17586 -0.23092,0.16888 -0.24049,0.36768 -0.24049,5.00669 0,2.65695 0.046,4.87725 0.10308,4.93401 0.0571,0.0568 2.34213,0.13154 5.07882,0.16618 5.73182,0.0725 5.77103,0.0793 6.41556,1.09564 0.52286,0.82435 0.50629,1.74818 -0.046,2.57461 -0.67159,1.00489 -0.78921,1.02383 -6.41059,1.03245 -2.77755,0.005 -4.8468,0.0563 -4.95503,0.12475 -0.16171,0.1022 -0.19024,1.23515 -0.22006,8.73693 -0.0221,5.62475 0.0101,8.78389 0.0931,9.09263 0.10824,0.40169 0.27234,0.56841 1.08722,1.10427 3.66874,2.41249 7.12396,6.40946 9.2985,10.75634 0.84866,1.69654 2.06188,4.70891 2.18732,5.43129 0.0469,0.27252 0.26866,1.08081 0.49166,1.7962 0.44527,1.428 0.60578,2.25731 0.88677,4.5834 0.10289,0.85165 0.25034,2.05015 0.32755,2.66333 0.18214,1.44527 0.18021,6.0906 0,7.68031 -0.32378,2.80589 -0.49745,3.67944 -1.2643,6.35945 -2.7169,9.49495 -9.33015,17.37362 -18.33643,21.84493 -3.07271,1.5255 -7.2378,2.87267 -9.90878,3.20495 -0.6472,0.0805 -1.56701,0.198 -2.04394,0.26103 -1.01506,0.1342 -5.91405,0.28044 -6.01483,0.17955 z m 5.02388,-7.11694 c 1.48869,-0.12766 2.53219,-0.32448 5.07892,-0.95799 3.1538,-0.78453 7.22621,-2.86868 9.9063,-5.06973 1.02335,-0.8404 3.65733,-3.43254 4.19804,-4.13139 1.14235,-1.47617 2.19009,-2.95822 2.59219,-3.66663 0.23396,-0.41217 0.5779,-1.01525 0.76436,-1.34015 0.87646,-1.52716 2.18475,-5.26282 2.68681,-7.67175 0.2751,-1.31989 0.29175,-1.65448 0.29175,-5.85935 0,-3.05646 -0.0479,-4.69337 -0.15305,-5.20279 -0.0838,-0.40879 -0.26424,-1.3007 -0.40008,-1.98202 -0.48448,-2.42921 -0.60551,-2.91805 -1.05961,-4.28093 -0.64251,-1.92814 -2.3322,-5.23875 -3.4104,-6.68208 -2.10983,-2.82417 -5.04808,-5.32952 -7.92182,-6.75474 -0.51107,-0.25342 -1.05455,-0.57506 -1.20779,-0.71475 l -0.27877,-0.254 0,-44.49619 c 0,-37.60595 -0.0267,-44.57154 -0.17165,-44.98276 -0.0944,-0.2676 -0.36824,-0.79025 -0.60845,-1.16142 -1.4619,-2.25863 -3.05504,-3.54009 -5.93402,-4.77314 -1.93396,-0.82828 -2.16782,-0.85676 -7.03607,-0.85676 -3.88695,0 -4.49789,0.0266 -5.26105,0.22941 -1.04553,0.27778 -2.80894,1.02572 -3.71955,1.57759 -1.53608,0.93097 -3.66312,3.11839 -4.30167,4.42373 l -0.40606,0.83019 -0.0626,44.71918 c -0.0341,24.59555 -0.0764,44.73018 -0.0929,44.74362 -0.0166,0.0134 -0.29516,0.15916 -0.61876,0.3238 -0.594,0.3022 -0.96426,0.50452 -2.60581,1.42396 -0.49636,0.27803 -1.3325,0.86506 -1.85812,1.30453 -1.50488,1.25829 -3.73878,3.63183 -4.56591,4.85132 -1.51408,2.23239 -3.20442,6.07489 -3.70564,8.42356 -0.1017,0.47692 -0.36069,1.70329 -0.57551,2.72527 l -0.39041,1.85813 -0.009,4.58341 c -0.009,3.48165 0.0322,4.76207 0.16208,5.32666 1.15431,5.01934 2.07431,7.3628 4.15773,10.59138 0.41351,0.6407 0.76914,1.1261 2.00638,2.73823 0.52277,0.68113 3.10824,3.23056 4.20688,4.14826 0.92091,0.76916 3.77375,2.59444 5.0664,3.24145 0.75322,0.37703 4.00182,1.64027 4.21819,1.64027 0.10474,0 0.7593,0.16435 1.45463,0.36521 1.76939,0.51116 3.27787,0.75001 4.79471,0.75919 0.71531,0.005 1.41211,0.058 1.54842,0.11922 0.26073,0.11714 0.7939,0.0991 3.2208,-0.109 z m -4.95503,-9.43551 c -0.20442,-0.0548 -0.73206,-0.16533 -1.17245,-0.24546 -1.32394,-0.24082 -3.83468,-1.09079 -5.02139,-1.69993 -2.61291,-1.34121 -5.1115,-3.44583 -6.8069,-5.73371 -1.24828,-1.68443 -2.41061,-4.18018 -3.05256,-6.55407 -0.46993,-1.73809 -0.72708,-5.20284 -0.49257,-6.6387 0.38241,-2.34201 1.32651,-5.48189 1.92014,-6.38578 0.15877,-0.24185 0.44159,-0.74355 0.62843,-1.11488 0.5177,-1.0289 1.5982,-2.39994 2.98334,-3.78558 1.28483,-1.28519 2.13745,-1.94764 3.6866,-2.8642 1.47819,-0.87462 1.95006,-1.09694 3.21638,-1.51544 0.98957,-0.32701 1.23734,-0.45851 1.33167,-0.70666 0.0709,-0.18669 0.11532,-13.66455 0.1144,-34.76527 l 0,-34.46039 0.33603,-1.11489 c 0.31734,-1.05293 0.38452,-1.16353 1.20935,-1.99039 1.23724,-1.24032 1.66097,-1.41619 3.41279,-1.41619 1.75319,0 2.17941,0.17721 3.40653,1.41619 1.2712,1.28345 1.4573,1.83652 1.58688,4.71566 0.0552,1.22637 0.12526,16.95366 0.15582,34.94954 0.0433,25.86758 0.0874,32.74621 0.20929,32.84599 0.0847,0.0694 0.67932,0.33102 1.32145,0.58134 2.74433,1.06991 4.59822,2.2839 6.70695,4.39213 1.45868,1.45829 2.34213,2.63336 3.31228,4.40565 0.80302,1.46685 1.64257,3.84531 1.8803,5.32666 0.0764,0.47693 0.1918,1.13616 0.25632,1.465 0.15894,0.8109 0.14818,3.4264 -0.0175,4.3497 -0.4229,2.35134 -1.09486,4.62733 -1.75743,5.9525 -0.49037,0.98062 -1.40207,2.48223 -1.87661,3.0906 -0.75378,0.96637 -3.00084,3.20502 -3.90113,3.88651 -2.03032,1.5368 -4.96167,2.8383 -7.44268,3.30444 -0.57909,0.10882 -1.29062,0.25114 -1.58118,0.31628 -0.62824,0.14086 -4.01977,0.13592 -4.55063,-0.006 z"
       id="path3226"
       inkscape:connector-curvature="0" />
    <path
       style="fill:#ff0000"
       d="m 266.67438,821.32719 c -7.34739,-2.26839 -11.79943,-9.46847 -10.13774,-16.39525 0.39443,-1.64428 8.89951,-16.81859 26.83978,-47.88617 14.44427,-25.01352 26.87175,-46.23877 27.61658,-47.16722 0.74488,-0.92844 2.61985,-2.33919 4.16666,-3.135 2.35198,-1.21008 3.37616,-1.44692 6.2567,-1.44692 2.88058,0 3.90471,0.23684 6.25674,1.44692 1.54676,0.79581 3.41913,2.20656 4.16078,3.135 2.30417,2.88454 53.14737,91.24399 54.11767,94.0501 2.11053,6.10363 -0.90876,13.00481 -7.14051,16.32097 l -2.41155,1.28328 -54.25967,0.0833 c -29.84282,0.0458 -54.80226,-0.0842 -55.46544,-0.28899 z m 109.10366,-10.11456 c 3.07876,-2.75087 4.19082,-0.47848 -24.57144,-50.2094 -20.90922,-36.15277 -26.37989,-45.2734 -27.58614,-45.99128 -1.74759,-1.04002 -4.28406,-0.7879 -5.46456,0.54316 -0.40711,0.45903 -12.41263,21.0192 -26.67897,45.68926 -28.61129,49.47609 -27.50541,47.21344 -24.42226,49.96826 l 1.56418,1.39757 52.79751,0 52.79755,0 1.56413,-1.39757 z m -58.26838,-12.29999 c -1.39971,-1.39972 -1.63985,-1.97179 -1.63985,-3.90669 0,-1.9349 0.24014,-2.50698 1.63985,-3.90669 1.3997,-1.39973 1.97182,-1.63986 3.9067,-1.63986 1.93492,0 2.50699,0.24013 3.90669,1.63986 1.39971,1.39971 1.63985,1.97179 1.63985,3.90669 0,1.9349 -0.24014,2.50697 -1.63985,3.90669 -1.3997,1.39973 -1.97177,1.63985 -3.90669,1.63985 -1.93488,0 -2.507,-0.24012 -3.9067,-1.63985 z m 1.54238,-17.43303 c -0.40987,-0.40983 -0.95628,-1.54929 -1.21427,-2.53212 -0.70446,-2.68358 -2.07985,-23.70365 -1.89152,-28.90772 0.16085,-4.44383 0.20171,-4.58375 1.73983,-5.95748 1.25092,-1.11726 2.02677,-1.40678 3.76959,-1.40678 4.4079,0 5.50834,1.80462 5.50516,9.02779 -0.005,5.5416 -1.712,25.03754 -2.42896,27.70006 -0.72167,2.68003 -3.73455,3.82157 -5.47983,2.07625 z"
       id="path3239"
       inkscape:connector-curvature="0" />
    <path
       style="fill:#00ff00"
       d="m 697.66433,907.01732 c -12.51164,-1.91642 -23.48498,-7.55015 -32.08934,-16.47476 -8.34715,-8.65779 -13.5498,-19.44341 -15.15707,-31.42217 -0.48011,-3.57832 -0.48011,-10.36823 0,-13.94656 1.32874,-9.90293 4.97619,-18.85989 10.89211,-26.74749 3.5551,-4.73997 10.16178,-10.68252 15.32202,-13.78173 9.07063,-5.4478 18.35714,-8.02268 28.90534,-8.0146 8.77868,0.007 16.49839,1.78523 24.29405,5.59701 16.82715,8.22787 28.24246,24.10921 30.70787,42.72186 0.17673,1.3343 0.23374,4.13349 0.16719,8.21048 -0.11122,6.81189 -0.33168,8.49042 -1.83412,13.96351 -3.89718,14.19652 -13.75886,26.55201 -26.91647,33.72308 -5.83038,3.17763 -12.10099,5.24776 -18.77036,6.19673 -2.96705,0.42217 -12.70329,0.40626 -15.52122,-0.0254 z m 11.96609,-3.26175 c 14.64734,-1.22681 28.43428,-8.76596 37.15476,-20.31741 7.73409,-10.24481 11.5321,-23.32605 10.39127,-35.78995 -1.14772,-12.54006 -6.42503,-23.72241 -15.36409,-32.55583 -8.03933,-7.9443 -18.53392,-13.02391 -29.89539,-14.47001 -3.7671,-0.47948 -11.5463,-0.35659 -14.81498,0.23404 -14.80413,2.67503 -27.08136,10.7304 -35.14611,23.06016 -4.12399,6.30496 -6.88641,13.96809 -7.94672,22.04457 -0.49748,3.78957 -0.34164,10.91542 0.31983,14.62139 0.96836,5.42573 2.25709,9.39793 4.63421,14.28397 9.26549,19.04477 29.62239,30.65172 50.66722,28.88907 z m -9.49171,-7.89396 c -2.53861,-0.28683 -6.52604,-1.21219 -9.19644,-2.13424 -13.46517,-4.64933 -23.94781,-15.73156 -27.68154,-29.26492 -1.04938,-3.80364 -1.46501,-6.46387 -1.62522,-10.40331 -0.67654,-16.63116 8.34536,-32.27857 23.15278,-40.15567 1.08141,-0.57528 1.96623,-1.14058 1.96623,-1.25619 0,-0.11562 -0.50895,-1.42836 -1.13099,-2.91722 -1.09844,-2.6291 -1.19018,-3.13422 -0.56922,-3.13422 0.16377,0 3.4223,1.27656 7.24117,2.8368 3.81892,1.56023 7.07001,2.887 7.22464,2.94835 0.15464,0.0613 0.28377,0.27786 0.28697,0.48113 0.004,0.20328 -1.28483,3.63817 -2.86218,7.63309 -2.42624,6.14494 -2.93231,7.25346 -3.28629,7.19823 -0.3003,-0.0468 -0.74983,-0.84124 -1.5926,-2.81418 -0.64579,-1.5119 -1.23983,-2.81456 -1.32005,-2.89481 -0.0802,-0.0802 -1.00663,0.33723 -2.05863,0.92772 -5.8256,3.26994 -11.32245,9.12111 -14.0575,14.96353 -6.22429,13.29598 -3.47786,28.58064 6.98085,38.85048 5.57786,5.47712 12.67823,8.74115 20.70879,9.5198 5.44039,0.52751 11.84815,-0.57251 16.71461,-2.8694 l 1.34968,-0.63702 -2.69936,-0.11246 c -2.13574,-0.089 -2.88719,-0.20968 -3.59909,-0.57804 -1.23019,-0.63651 -2.29146,-2.24945 -2.46973,-3.75362 -0.0768,-0.64872 -0.10939,-12.41547 -0.0722,-26.14833 l 0.0675,-24.96884 0.50404,-0.94299 c 0.5608,-1.04913 1.57861,-1.90048 2.73497,-2.28764 0.42057,-0.1408 2.09493,-0.25601 3.7209,-0.25601 l 2.95628,0 0.23545,-2.02747 c 0.25148,-2.16566 0.61144,-2.82006 1.92792,-3.50505 0.93903,-0.48857 9.61111,-0.4517 10.6585,0.0453 1.18715,0.56334 1.72928,1.65447 1.84894,3.7213 l 0.1022,1.7659 3.17657,0.005 c 2.58498,0.004 3.34449,0.0812 4.07829,0.41458 1.13401,0.51518 2.26432,1.78649 2.57138,2.89226 0.36333,1.30838 0.32702,51.11369 -0.0382,52.33589 -0.35526,1.18909 -1.8821,2.72919 -3.01848,3.04473 -0.47649,0.1323 -2.06597,0.24112 -3.5322,0.24181 l -2.66582,0.002 -1.60814,1.49153 c -7.06299,6.55098 -15.27203,10.44646 -24.5875,11.66761 -2.78797,0.36547 -7.66112,0.40033 -10.53735,0.0753 z m 42.12709,-17.1838 0.49993,-0.35017 0,-25.16497 c 0,-22.57731 -0.0366,-25.20131 -0.35348,-25.51845 -0.31326,-0.31328 -1.84778,-0.35348 -13.49147,-0.35348 l -13.13799,0 -0.34555,0.52731 c -0.3064,0.46763 -0.33881,3.35991 -0.28633,25.54936 0.0579,24.47382 0.0687,25.02905 0.49577,25.34131 0.36503,0.26689 2.54318,0.31926 13.27792,0.31926 11.25826,0 12.90288,-0.0432 13.3412,-0.35017 z m -17.58962,-11.76695 c -0.0744,-0.12034 0.5743,-2.72596 1.4415,-5.79025 0.86724,-3.0643 1.57678,-5.70187 1.57678,-5.86126 0,-0.22286 -0.89575,-0.30403 -3.87742,-0.35136 -3.23505,-0.0514 -3.888,-0.11745 -3.9413,-0.39897 -0.0505,-0.26644 11.41726,-15.3163 12.67649,-16.63625 0.23457,-0.24585 0.37699,-0.26351 0.56985,-0.0707 0.19282,0.19284 -0.14412,1.68255 -1.34805,5.96008 -0.88287,3.13663 -1.60519,5.77258 -1.60519,5.85768 0,0.0851 1.74615,0.18241 3.88031,0.21626 3.69145,0.0586 3.8826,0.0834 3.92789,0.51144 0.0481,0.45582 -12.37441,16.53092 -12.90509,16.69939 -0.14329,0.0455 -0.3214,-0.0158 -0.39577,-0.13608 z"
       id="path3263"
       inkscape:connector-curvature="0" />
    <path
       style="fill:#ff0000"
       d="m 110.62857,633.30687 c -23.022254,-3.06958 -41.857314,-20.36496 -47.224664,-43.3643 -1.46734,-6.28763 -1.44036,-17.77975 0.0571,-24.20267 2.33964,-10.03722 6.75175,-18.22382 13.84969,-25.69795 11.11115,-11.70011 24.530844,-17.49078 40.534184,-17.49078 5.92151,0 9.31405,0.3532 13.26175,1.38075 20.18695,5.25446 35.55273,20.6196 40.81492,40.81335 1.93191,7.41371 1.93595,19.17711 0.009,26.52348 -6.29303,23.99255 -26.55716,40.76444 -51.10179,42.29511 -3.09993,0.19331 -7.68989,0.0777 -10.19988,-0.25699 z m 21.13444,-12.8309 c 17.75667,-5.98811 29.686,-21.59403 30.64244,-40.0864 0.42955,-8.30448 -0.88913,-14.54172 -4.70931,-22.27518 -5.27943,-10.68741 -14.03277,-18.39544 -25.51711,-22.46996 -5.26186,-1.86683 -6.39693,-2.0267 -14.33449,-2.0189 -7.70467,0.008 -9.18282,0.20443 -13.91846,1.85386 -13.897044,4.84035 -24.127014,15.09942 -28.567574,28.64877 -1.70884,5.21408 -1.94079,6.87276 -1.94079,13.87885 0,6.9807 0.2348,8.67349 1.9138,13.79601 5.00558,15.27168 17.24404,26.32979 33.229814,30.02488 6.26405,1.44793 16.70289,0.83967 23.20168,-1.35193 z m -16.66563,-11.59896 c -3.70766,-1.57678 -4.7556,-7.18358 -1.95187,-10.44311 1.32883,-1.54485 2.12599,-1.86046 4.69903,-1.86046 3.96355,0 6.29933,2.33579 6.29933,6.29932 0,4.63539 -4.78987,7.81449 -9.04649,6.00425 z m 0.43942,-16.12314 c -3.17373,-1.63676 -3.30827,-2.6691 -3.31874,-25.47115 l -0.01,-21.33368 1.71666,-2.04014 c 2.38771,-2.83764 5.46125,-2.82597 7.86428,0.0299 l 1.7418,2.07 -0.19091,22.11505 c -0.18215,21.10433 -0.2515,22.17456 -1.51707,23.41703 -1.79007,1.75743 -4.29382,2.24057 -6.28626,1.21301 z m -51.737564,37.55479 c -9.49488,-8.57805 -17.70966,-24.90067 -19.552639,-38.85085 -3.47949,-26.33639 2.790599,-48.46168 18.233689,-64.34199 4.3167,-4.43887 6.82072,-5.00658 9.64142,-2.18591 2.71674,2.71679 2.18845,4.80585 -2.70367,10.69015 -10.73643,12.91398 -15.65919,26.23906 -15.65919,42.38695 0,16.17776 4.93124,29.54786 15.62511,42.36474 4.92852,5.90692 5.46072,7.98935 2.73775,10.71235 -2.39931,2.39926 -5.08548,2.14898 -8.32247,-0.77544 z m 99.768204,0.77544 c -2.63225,-2.6322 -2.17327,-4.94775 1.94238,-9.79899 9.77715,-11.52475 15.07966,-23.67715 16.21069,-37.15171 1.56058,-18.59233 -4.05,-35.39357 -16.73366,-50.11005 -3.56992,-4.14209 -3.94809,-6.56477 -1.41941,-9.09343 3.60832,-3.60838 7.44428,-1.49583 14.47479,7.97155 7.50217,10.10246 11.94863,20.72689 13.46591,32.17534 1.68212,12.69275 0.71229,27.98132 -2.35031,37.04995 -3.3104,9.80263 -11.6198,23.25319 -17.61941,28.52095 -2.92509,2.5682 -5.68797,2.71947 -7.97098,0.43639 z"
       id="path3287"
       inkscape:connector-curvature="0" />
    <path
       style="fill:#0000ff"
       d="m 374.25479,645.62713 c -22.26705,-3.36466 -41.08074,-20.34565 -46.35815,-41.84231 -0.68466,-2.78881 -1.57529,-5.4936 -1.97914,-6.01062 -0.41256,-0.5281 -2.37703,-0.94006 -4.48288,-0.94006 -3.01777,0 -3.66445,-0.21921 -3.31708,-1.12446 0.49868,-1.29948 12.28924,-16.69672 13.23177,-17.2792 0.34632,-0.21405 1.28501,0.20124 2.086,0.92286 3.23075,2.91058 14.49309,15.83187 14.49309,16.62788 0,0.51455 -1.41714,0.85749 -3.57216,0.86444 -5.48333,0.0177 -5.84671,0.49709 -4.33813,5.72297 5.32171,18.43468 23.2295,31.85082 42.50396,31.84316 19.48548,-0.007 36.96551,-12.5647 42.88833,-30.80932 2.48006,-7.63935 2.49216,-18.40391 0.0286,-25.56923 -5.15626,-14.99842 -16.83824,-25.84449 -31.98259,-29.69412 -19.87933,-5.05324 -41.73561,5.22536 -50.74794,23.86584 -1.74984,3.61918 -3.47463,6.58032 -3.83297,6.58032 -0.35835,0 -1.69931,-1.52287 -2.97987,-3.38417 -2.60822,-3.79094 -2.48548,-3.72331 -4.48823,-2.47257 -0.8028,0.50135 -1.69735,0.67387 -1.98786,0.38335 -0.76722,-0.76722 4.5335,-11.1302 7.85367,-15.3541 1.56228,-1.98753 3.10155,-4.04584 3.42056,-4.57402 0.37331,-0.61818 -0.78001,-2.44834 -3.23714,-5.13685 -2.09939,-2.29709 -3.81711,-4.86589 -3.81711,-5.70846 0,-0.84257 1.31388,-2.8458 2.91971,-4.45162 4.05452,-4.05457 6.29732,-3.94455 10.64837,0.52236 5.02519,5.15901 5.1034,5.17416 11.37426,2.20186 3.03334,-1.43777 8.05324,-3.2344 11.1554,-3.99253 l 5.64027,-1.3784 0.23005,-3.54144 c 0.22117,-3.4047 0.13025,-3.58315 -2.35538,-4.62171 -2.06863,-0.86432 -2.68747,-1.62438 -3.09605,-3.80243 -0.67211,-3.58236 0.11701,-6.93968 1.84887,-7.86657 0.76648,-0.41017 5.76278,-0.74578 11.10292,-0.74578 11.70183,0 12.42191,0.41052 12.05273,6.87203 -0.21922,3.8361 -0.36474,4.09149 -3.05034,5.35238 -2.54489,1.19483 -2.82013,1.60814 -2.82013,4.23422 0,1.60058 0.42302,3.24377 0.94004,3.65153 0.51703,0.40776 3.39567,1.3322 6.3969,2.0543 3.0013,0.72212 7.85126,2.46042 10.7778,3.86293 2.92656,1.40249 5.72796,2.54999 6.22544,2.54999 0.49739,0 2.7426,-1.86129 4.98923,-4.1362 5.14145,-5.2061 7.16315,-5.42243 11.36906,-1.21654 1.61545,1.61549 2.91963,3.65598 2.91963,4.56806 0,0.97129 -1.70103,3.43173 -4.14124,5.99002 l -4.14124,4.34165 2.51798,3.31089 c 4.38294,5.76318 6.67867,9.85963 8.83161,15.75875 11.29189,30.94057 -6.75299,63.96049 -39.63382,72.52485 -5.40925,1.40893 -16.27872,1.92373 -22.087,1.04607 z m 8.76866,-56.06267 c -0.27577,-0.27574 -0.50138,-8.35629 -0.50138,-17.95678 0,-13.54305 0.22253,-17.64014 0.99299,-18.27952 1.60605,-1.3329 9.97764,0.37305 16.19337,3.29988 6.78044,3.19268 14.65478,10.73506 17.65517,16.91076 2.11481,4.35288 4.61653,14.59675 3.86269,15.81654 -0.49657,0.8034 -37.40651,1.00544 -38.20284,0.20912 z"
       id="path3300"
       inkscape:connector-curvature="0" />
    <path
       style="fill:#0000ff"
       d="m 689.66425,681.47662 c -9.97338,3.67224 -21.06924,0.67003 -27.69711,-7.49407 -1.73109,-2.13235 -3.49276,-5.36008 -4.25595,-7.79793 -2.46157,-7.86311 -1.08105,-15.98852 3.81646,-22.46299 2.34692,-3.10264 5.17752,-5.42306 8.73367,-7.15957 1.91299,-0.93413 3.6177,-1.5274 5.63346,-1.96051 2.30154,-0.49454 1.76865,-0.75559 4.86008,2.38045 1.46782,1.489 2.65559,2.74552 2.63952,2.79224 -0.016,0.0467 -0.56727,0.0459 -1.22488,-0.002 -5.45707,-0.39548 -11.12763,1.85063 -14.87892,5.89365 -5.36369,5.78074 -6.61893,14.14598 -3.17658,21.16874 2.28799,4.66728 6.39086,8.15696 11.38095,9.67934 1.84159,0.56186 3.45786,0.81041 5.33792,0.82087 1.92679,0.0108 2.83341,-0.0864 4.49396,-0.48156 8.52349,-2.0283 14.51378,-9.63892 14.48938,-18.40864 -0.002,-0.57274 -0.0219,-1.26678 -0.0451,-1.54221 -0.0232,-0.27544 -0.002,-0.52029 0.0466,-0.54413 0.10321,-0.0504 5.23415,5.11398 5.37587,5.4108 0.25925,0.54457 -1.19701,5.61478 -2.15953,7.51609 -2.11407,4.17623 -4.99641,7.41808 -8.75067,9.84212 -0.96302,0.62183 -3.6781,2.00261 -4.61911,2.34905 z m 56.13199,-27.50393 c -4.22017,1.427 -8.54938,1.69189 -13.0443,0.79812 -1.2146,-0.24151 -4.13093,-1.23071 -5.35858,-1.81762 -4.32769,-2.06904 -7.67055,-5.00439 -10.21764,-8.97205 -6.68037,-10.40623 -4.45607,-24.2695 5.15846,-32.15141 2.10016,-1.72168 5.08954,-3.37964 7.64583,-4.24057 10.44424,-3.51738 21.97904,0.38498 28.20133,9.5409 0.99526,1.46446 2.44293,4.4309 2.943,6.04057 3.25088,10.36884 -0.29842,21.18123 -9.04736,27.56131 -1.35914,0.99118 -4.65464,2.69149 -6.28473,3.24269 z m 1.71285,-7.04324 c 5.72361,-3.45061 9.16473,-9.59405 9.11411,-16.2716 -0.0226,-2.96991 -0.60302,-5.47945 -1.86963,-8.08332 -3.17422,-6.52501 -9.83908,-10.6505 -17.09473,-10.58121 -9.29171,0.0887 -17.06318,6.86983 -18.45679,16.10485 -1.00162,6.63742 1.81091,13.53314 7.19696,17.64517 5.14846,3.93071 12.10736,4.94341 18.13318,2.63885 1.3087,-0.50048 1.77407,-0.72759 2.97654,-1.45348 z m -33.08273,16.54176 c -0.84734,0.16822 -1.995,-0.0724 -2.67037,-0.55981 -0.20132,-0.14531 -7.00492,-7.00182 -26.44051,-26.64604 -3.1059,-3.13924 -6.6924,-6.75711 -7.9699,-8.03968 -2.82529,-2.83632 -3.22333,-3.34748 -4.0317,-5.17734 -1.22796,-2.77948 -1.30609,-5.45707 -0.24224,-8.30124 0.45154,-1.20718 1.27561,-2.62432 8.80425,-15.14123 4.56833,-7.59518 8.48955,-14.0247 8.71374,-14.28777 0.34824,-0.40859 0.54749,-0.54119 1.36675,-0.9095 1.15951,-0.52124 1.92158,-0.5668 2.99306,-0.17888 0.3974,0.14386 6.8688,3.94289 15.20719,8.92743 7.98344,4.77237 14.92254,8.91986 15.42019,9.21665 1.04857,0.62548 1.46042,1.04877 1.59984,1.64459 0.22273,0.95151 -0.15403,1.78984 -1.02493,2.28054 -0.51934,0.29266 -0.6554,0.32338 -1.14054,0.25512 -0.30291,-0.0425 -5.24189,-1.97465 -10.9756,-4.2937 -9.56164,-3.86728 -10.47964,-4.21509 -11.08609,-4.19995 -0.82424,0.0205 -1.77635,0.50425 -2.24132,1.13864 -0.42525,0.58023 -11.71587,20.08903 -11.90047,20.56259 -0.19322,0.49558 -0.21292,1.3753 -0.0435,1.93774 0.13119,0.43525 0.47464,0.90204 3.98323,5.41604 0.83644,1.07605 1.65859,2.1376 1.82703,2.359 0.16834,0.22145 0.9128,1.18289 1.65419,2.13667 15.44841,19.87362 20.35737,26.26446 20.69673,26.94447 0.63149,1.26586 0.47418,2.49031 -0.46791,3.63831 -0.44766,0.54546 -1.41785,1.15561 -2.03116,1.27735 z m -6.57198,-25.19717 c -1.0964,0.15518 -2.07476,-0.3261 -2.51345,-1.23643 -0.16011,-0.34154 -0.56381,-2.36369 -1.26704,-6.40985 -1.10389,-6.35161 -1.20682,-6.73982 -1.92877,-7.27809 -0.54715,-0.40789 -1.03451,-0.5236 -4.40167,-1.04528 -1.68846,-0.26158 -3.25169,-0.55616 -3.4739,-0.6546 -0.77535,-0.34347 -1.1683,-1.26928 -0.87112,-2.05198 0.0818,-0.21551 1.04208,-2.15687 2.1339,-4.31415 1.41124,-2.78847 2.07757,-3.99112 2.30496,-4.16031 0.7295,-0.5428 0.84669,-0.51494 6.02472,1.43359 5.30444,1.99606 5.50599,2.10222 5.90149,3.10769 0.20065,0.50959 0.22158,1.73388 0.18084,10.47578 -0.0254,5.44429 -0.0843,10.09726 -0.13083,10.33991 -0.16741,0.8727 -1.02973,1.66221 -1.95913,1.79372 z m 0.68296,-54.07051 c -2.38497,0.60533 -5.32254,0.20815 -7.48354,-1.01168 -0.85916,-0.48495 -2.06041,-1.50511 -2.76691,-2.34972 -0.81768,-0.97741 -1.76275,-2.85783 -2.0172,-4.01315 -0.40833,-1.85539 -0.31736,-3.67894 0.27264,-5.4668 1.94375,-5.89016 8.53256,-8.60048 14.08813,-5.79519 3.00612,1.51794 5.14898,4.74965 5.40781,8.15559 0.23225,3.05627 -1.01666,6.16348 -3.31561,8.24904 -0.81286,0.73738 -3.09801,1.95599 -4.1855,2.23199 z"
       id="path3348"
       inkscape:connector-curvature="0" />
    <path
       style="fill:#0000ff"
       d="m 540.45379,852.50531 c 6.85028,-5.45542 10.40294,-14.25203 9.29813,-23.02254 -1.1771,-9.34418 -7.18941,-17.10085 -15.96129,-20.59218 -6.44725,-2.56605 -13.46314,-2.3774 -20.09942,0.54054 -1.87312,0.8236 -5.42592,3.25925 -6.85692,4.7007 -0.57655,0.58075 -1.119,1.03899 -1.20548,1.01823 -0.25033,-0.0601 -4.25696,-3.04748 -4.4357,-3.30727 -0.0889,-0.12919 -0.10017,-0.53179 -0.025,-0.89465 0.20314,-0.98106 -0.0908,-1.97156 -0.86953,-2.92913 -0.79115,-0.97299 -1.40408,-1.31768 -2.72575,-1.53289 -0.67303,-0.10964 -1.01701,-0.24842 -1.02823,-0.41489 -0.0536,-0.79301 0.25434,-3.30784 0.41889,-3.42103 0.10717,-0.0737 1.03318,-0.0837 2.05772,-0.022 2.55502,0.15349 3.15391,-0.0333 3.74417,-1.16789 0.63554,-1.22141 0.11844,-2.80609 -1.09234,-3.34766 -0.29297,-0.13102 -2.20364,-0.28671 -4.24593,-0.34598 -3.51737,-0.10207 -3.74653,-0.0849 -4.3435,0.32583 -0.80239,0.55202 -0.85506,0.79347 -1.14337,5.24175 -0.12191,1.88074 -0.26657,3.51168 -0.32145,3.62431 -0.12953,0.26563 -10.84531,2.24371 -11.20219,2.06785 -0.14923,-0.0737 -2.6227,-1.88382 -5.49654,-4.02265 -2.8739,-2.13884 -5.41536,-4.01792 -5.64776,-4.17576 -0.23235,-0.15787 -1.13866,-0.87086 -2.01401,-1.58448 -0.87532,-0.71364 -1.76552,-1.36993 -1.97821,-1.45854 -0.21269,-0.0885 -1.8642,-1.13531 -3.67002,-2.32623 -4.4624,-2.94274 -4.26676,-2.83181 -5.31505,-3.01399 -1.31884,-0.22924 -2.48437,0.0212 -3.56137,0.76545 -0.75747,0.52111 -1.57505,1.51278 -6.16029,7.45081 -5.87472,7.60788 -6.18641,8.02601 -8.64877,11.60456 -2.29779,3.33932 -3.43832,5.37443 -3.9814,7.10396 -1.39217,4.43366 -0.26576,9.09492 2.9394,12.1638 1.48364,1.42046 2.47766,1.95704 7.12892,3.84781 8.15832,3.31654 12.067,4.98361 12.11079,5.16538 0.025,0.10475 0.063,2.65285 0.0842,5.66281 0.0324,4.6337 -0.0107,5.4912 -0.28144,5.59373 -0.17585,0.0666 -1.01145,0.28418 -1.85677,0.48351 -7.45261,1.75717 -13.85839,6.91714 -17.06248,13.74419 -1.51078,3.21906 -2.45016,7.18535 -2.49619,10.54045 -0.0495,3.60339 0.83692,7.85081 2.31865,11.11012 0.92982,2.0454 3.3092,5.50753 4.89542,7.12636 1.42787,1.45509 3.94796,3.38257 5.77001,4.41322 6.71294,3.79718 15.18023,4.29039 22.33671,1.30092 5.17813,-2.16304 9.56424,-6.02809 12.32726,-10.86268 4.0862,-7.14991 4.48277,-15.94744 1.05283,-23.35545 -0.41449,-0.8952 -0.7437,-1.68132 -0.73154,-1.74688 0.0527,-0.28494 0.42964,-0.0872 1.11997,0.58745 2.80494,2.74138 6.9944,3.07939 10.25121,0.82714 3.0813,-2.13077 4.25113,-6.04467 2.83374,-9.47976 -0.53597,-1.29895 -1.87643,-2.92087 -3.02032,-3.65453 -0.53227,-0.34138 -1.07855,-0.72271 -1.21394,-0.84732 -0.17938,-0.16495 -0.15465,-1.36893 0.0906,-4.42754 0.18527,-2.3105 0.74374,-9.37289 1.24105,-15.69418 0.49726,-6.32126 0.95,-11.86569 1.00596,-12.32086 l 0.10189,-0.82761 1.9889,-1.31393 1.98892,-1.31392 1.91877,1.42621 c 1.0553,0.78446 1.92237,1.50037 1.92683,1.59103 0.005,0.0906 -0.38446,0.89429 -0.86427,1.7859 -3.59789,6.68614 -3.91676,14.6722 -0.87393,21.8876 0.70223,1.66505 1.0735,2.3264 2.35581,4.19635 2.39868,3.49896 5.18591,6.07529 8.60322,7.95515 9.25387,5.09064 20.25363,4.15416 28.51868,-2.42796 z m -8.25176,-1.94072 c -1.65272,0.70751 -3.06249,1.1056 -4.83334,1.36491 -9.76124,1.42941 -18.99317,-4.44423 -21.75763,-13.84293 -1.03588,-3.52161 -0.96483,-7.77373 0.18865,-11.29529 0.5498,-1.67858 1.64777,-3.8688 1.94384,-3.87771 0.11716,-0.004 3.44001,2.39618 7.38426,5.33259 3.94428,2.93646 7.41558,5.42797 7.71409,5.5367 2.1155,0.77083 4.08237,-1.68908 2.80421,-3.50725 -0.31602,-0.44876 -2.45472,-2.11758 -7.62511,-5.94789 -4.85372,-3.59573 -7.17251,-5.39836 -7.1438,-5.55366 0.12376,-0.66957 3.1077,-2.86854 5.18515,-3.82121 7.1075,-3.25931 15.33768,-2.09374 21.2517,3.00967 1.42058,1.22586 1.63892,1.47928 3.10279,3.60141 1.14477,1.66398 1.69787,2.59268 2.028,3.42377 2.85997,7.19964 1.66304,14.63326 -3.3049,20.52628 -1.63473,1.93906 -4.44031,3.9815 -6.93791,5.05061 z m -64.20222,44.2712 c -3.47624,1.65091 -8.35247,2.16037 -12.3158,1.28671 -13.32204,-2.93667 -19.48303,-18.23792 -11.99112,-29.78062 1.54451,-2.37956 2.45504,-3.27614 5.34213,-5.26049 2.74338,-1.88735 3.59717,-2.29952 5.91532,-2.86672 0.87521,-0.21415 1.18106,-0.22014 1.25103,-0.0244 0.0934,0.26112 0.20662,4.9462 0.35716,14.78669 0.0777,5.07982 0.10404,5.3795 0.52677,5.99394 0.54149,0.78709 1.40204,1.1791 2.31276,1.05355 0.57949,-0.0798 1.30811,-0.55366 9.18924,-5.97539 5.19547,-3.57411 8.62478,-5.86001 8.72486,-5.81598 0.26233,0.11543 1.25442,2.68725 1.60679,4.16537 1.72906,7.25284 -0.75871,14.73756 -6.55356,19.71697 -0.7139,0.61343 -3.22826,2.18028 -4.36557,2.72038 z m -6.62712,-21.83831 c -0.27214,-0.18683 -0.38061,-14.99173 -0.1118,-15.25119 0.28807,-0.27806 3.21238,0.2413 5.20577,0.92448 2.47378,0.84782 5.10254,2.45487 7.05256,4.31142 0.63664,0.60616 0.84096,0.87878 0.82132,1.09592 -0.0389,0.43144 -12.67352,9.12149 -12.96687,8.92078 z m 17.78015,-12.85 c -0.20536,-0.18542 -0.84593,-0.81395 -1.42348,-1.39668 -3.74794,-3.78165 -9.46595,-6.49311 -14.94645,-7.0876 -0.84218,-0.0913 -1.58794,-0.24853 -1.65727,-0.3493 -0.19216,-0.27933 -0.21226,-8.60312 -0.0211,-8.74136 0.0935,-0.0643 1.13301,0.26952 2.31327,0.74685 2.06431,0.83482 3.3654,1.68375 4.00445,2.61263 0.10357,0.15056 0.2152,1.10401 0.24805,2.11889 0.0672,2.0735 0.25992,2.7219 1.00344,3.37351 0.80767,0.70785 3.54967,0.91711 4.39521,0.3354 0.17358,-0.1194 0.46326,-0.20739 0.64381,-0.19542 0.20558,0.0136 1.59378,1.14752 3.71729,3.03621 1.86407,1.65799 3.48927,3.09422 3.61164,3.19171 0.13145,0.10462 0.18457,0.49743 0.12984,0.95921 -0.0883,0.7448 -0.12964,0.80467 -0.869,1.25758 -0.73455,0.45022 -0.79635,0.45742 -1.14968,0.13832 z m 7.18911,-9.81238 c -0.8043,-0.83107 -9.25114,-9.80811 -10.23752,-10.88 -0.45457,-0.49402 -0.45516,-0.5173 -0.10981,-4.23109 l 0.34732,-3.73432 6.64841,-4.57388 c 4.97569,-3.42311 6.66247,-4.52554 6.70359,-4.38263 0.11674,0.4045 -2.18223,28.58327 -2.33593,28.63234 -0.0891,0.0287 -0.54657,-0.34519 -1.0161,-0.83042 z m -8.06171,-26.32354 c -0.0525,-0.0763 -0.14656,-0.56859 -0.20896,-1.09378 -0.10071,-0.84814 -0.21179,-1.09758 -0.99319,-2.23067 -0.7279,-1.05804 -1.00602,-1.34622 -1.61638,-1.68704 -1.46159,-0.81606 -2.09373,-0.84791 -9.75078,-0.49194 -4.07443,0.18946 -7.45659,0.27597 -7.51583,0.19222 -0.0581,-0.0844 -0.0516,-0.2325 0.0169,-0.3307 3.12619,-4.47697 6.34875,-8.8965 6.51594,-8.93628 0.12093,-0.0289 3.07841,2.11315 6.57205,4.75979 3.49364,2.64663 6.4667,4.83117 6.60681,4.85453 0.14017,0.0234 2.62556,-0.49408 5.52309,-1.14991 2.89758,-0.65579 5.30443,-1.13989 5.34853,-1.07578 0.0441,0.0641 -2.27847,1.73925 -5.16123,3.72248 -3.51708,2.41964 -5.27283,3.56018 -5.3369,3.46704 z m -14.07647,6.7302 c -1.31388,-0.72443 -2.36281,-1.37634 -2.33096,-1.4487 0.0949,-0.21553 4.75108,-0.34943 4.89524,-0.14071 0.20726,0.30126 0.21582,2.63735 0.01,2.77927 -0.10391,0.0715 -1.23193,-0.44997 -2.57384,-1.18983 z m 10.40129,-40.99718 c 1.15198,-1.39962 1.68764,-2.57603 2.05259,-4.50801 0.54475,-2.88349 0.11472,-4.9387 -1.53905,-7.35629 -1.5047,-2.19951 -3.58295,-3.54973 -6.21195,-4.03573 -2.62616,-0.48541 -5.04922,0.0317 -7.24552,1.54636 -2.40918,1.66471 -3.54005,3.41759 -4.06698,6.32035 -0.49978,2.75353 -0.0441,4.97261 1.4746,7.18013 1.003,1.4579 1.76989,2.16263 3.33345,3.06346 2.44511,1.40882 5.85376,1.63049 8.41721,0.54752 1.19346,-0.50421 3.03488,-1.8457 3.78565,-2.75779 z"
       id="path3372"
       inkscape:connector-curvature="0" />
    <path
       style="fill:#0000ff"
       d="m 459.02882,914.07114 c 1.72597,-1.76701 94.02289,-65.38554 98.43024,-67.84613 l 2.63576,-1.47152 0,35.48291 0,35.48292 -51.33796,0 -51.33789,0 1.60985,-1.64818 z m 91.06079,-29.16452 c 0.12855,-14.21821 -0.0436,-20.5444 -0.55443,-20.37412 -1.43638,0.4788 -58.98792,40.29948 -59.00605,40.82712 -0.01,0.29413 13.34489,0.45227 29.67783,0.35143 l 29.69625,-0.18334 0.1864,-20.62109 z"
       id="path3391"
       inkscape:connector-curvature="0" />
    <path
       style="fill:#00ff00"
       d="m 680.56141,476.00295 c 0,-0.51523 0.67828,-3.7939 1.2943,-6.25651 1.1563,-4.62223 2.64462,-8.76725 4.4055,-12.26935 2.41153,-4.79611 4.54612,-7.42847 8.25488,-10.17969 4.27892,-3.17417 6.75677,-5.31669 10.59009,-9.15686 9.08406,-9.10038 16.50194,-20.24946 21.89963,-32.91536 1.10732,-2.59837 2.41887,-6.05066 2.33175,-6.13776 -0.0245,-0.0246 -0.67701,1.27187 -1.44983,2.88101 -4.74656,9.88317 -10.50893,18.29794 -18.48426,26.99253 -4.7113,5.13619 -11.26384,11.10062 -16.64014,15.14664 -4.89922,3.68699 -7.01018,5.89313 -10.30929,10.77404 -0.53883,0.79717 -1.06338,1.44941 -1.16565,1.44941 -0.73754,0 -3.34377,-5.52915 -4.85438,-10.29871 -1.5717,-4.96236 -2.23736,-9.27174 -2.24132,-14.50965 -0.002,-3.14116 0.20801,-5.39778 0.76762,-8.23387 2.33641,-11.8409 9.83158,-22.2884 21.99922,-30.66462 6.12491,-4.2164 12.85102,-7.66236 21.75407,-11.14518 4.93909,-1.93215 5.72391,-2.27993 8.16124,-3.61651 4.06251,-2.22782 7.52821,-4.73161 12.49065,-9.0238 0.45878,-0.39682 0.55891,-0.43427 0.72091,-0.26966 0.6282,0.63826 3.81586,6.55657 5.13038,9.52516 4.60472,10.39894 6.84569,21.79684 6.39326,32.517 -0.19457,4.60984 -0.74192,8.57171 -1.61315,11.67576 -1.66274,5.92424 -4.63072,12.02309 -8.39854,17.25799 -1.88539,2.61948 -3.05545,3.99119 -5.411,6.34346 -8.08953,8.07825 -18.09125,12.60306 -30.24644,13.68357 -2.46644,0.21925 -8.52381,0.18287 -10.99463,-0.066 -1.17235,-0.11809 -2.1832,-0.18278 -2.24635,-0.14376 -0.0631,0.039 -0.47995,0.72295 -0.92624,1.51982 -1.78433,3.18597 -3.07895,6.80523 -3.91689,10.95035 -0.21271,1.05214 -0.43953,1.96131 -0.50406,2.02038 -0.0645,0.0591 -0.54208,0.24387 -1.06114,0.41064 -0.51911,0.16678 -1.98214,0.69001 -3.25123,1.16273 -1.26909,0.47272 -2.34603,0.85949 -2.39322,0.85949 -0.0472,0 -0.0857,-0.1272 -0.0857,-0.28266 z"
       id="path3047"
       inkscape:connector-curvature="0" />
  </g>
</svg>
